<?xml version="1.0" encoding="utf-8"?>
<!-- Generator: Adobe Illustrator 27.4.1, SVG Export Plug-In . SVG Version: 6.00 Build 0)  -->
<svg version="1.1" id="Layer_1" xmlns="http://www.w3.org/2000/svg" xmlns:xlink="http://www.w3.org/1999/xlink" x="0px" y="0px"
	 viewBox="0 0 62 62" style="enable-background:new 0 0 62 62;" xml:space="preserve">
<style type="text/css">
	.st0{opacity:0.6;}
	.st1{fill:#B13030;}
	.st2{fill:#FFFFFF;}
</style>
<g class="st0">
	<circle cx="31" cy="31" r="30"/>
</g>
<g>
	<path class="st1" d="M31,5c14.3,0,26,11.7,26,26S45.3,57,31,57S5,45.3,5,31S16.7,5,31,5 M31,0C13.9,0,0,13.9,0,31s13.9,31,31,31
		s31-13.9,31-31S48.1,0,31,0L31,0z"/>
</g>
<path class="st2" d="M38.8,31.1c0-3.3-1.9-6.1-4.6-7.4v4.1l4.5,4.5C38.8,31.9,38.8,31.6,38.8,31.1z M43.5,31.1c0,1.7-0.4,3.4-1,4.9
	l2.8,2.8c1.2-2.3,1.9-4.9,1.9-7.7c0-7.9-5.5-14.5-12.9-16.2v3.8C39.6,20.4,43.5,25.3,43.5,31.1z M16.3,14.6l-2.3,2.3l8.7,8.7h-8.7
	v11.1h7.4l9.2,9.2V33.5l7.8,7.8c-1.2,1-2.6,1.7-4.2,2.2v3.8c2.5-0.6,4.9-1.8,6.8-3.3l3.8,3.8l2.3-2.3L30.5,28.8L16.3,14.6z
	 M30.5,16.4l-3.9,3.9l3.9,3.9V16.4z"/>
</svg>
