<?xml version="1.0" encoding="utf-8"?>
<!-- Generator: Adobe Illustrator 27.4.1, SVG Export Plug-In . SVG Version: 6.00 Build 0)  -->
<svg version="1.1" id="Layer_1" xmlns="http://www.w3.org/2000/svg" xmlns:xlink="http://www.w3.org/1999/xlink" x="0px" y="0px"
	 viewBox="0 0 62 62" style="enable-background:new 0 0 62 62;" xml:space="preserve">
<style type="text/css">
	.st0{opacity:0.6;}
	.st1{fill:#B13030;}
	.st2{fill:#FFFFFF;}
</style>
<g class="st0">
	<circle cx="31" cy="31" r="30"/>
</g>
<g>
	<path class="st1" d="M31,5c14.3,0,26,11.7,26,26S45.3,57,31,57S5,45.3,5,31S16.7,5,31,5 M31,0C13.9,0,0,13.9,0,31s13.9,31,31,31
		s31-13.9,31-31S48.1,0,31,0L31,0z"/>
</g>
<path class="st2" d="M13.9,25.6v11h7.4l9.2,9.2V16.4l-9.2,9.2H13.9z M38.8,31.1c0-3.3-1.9-6.1-4.6-7.4v14.8
	C36.9,37.2,38.8,34.4,38.8,31.1z M34.2,15v3.8c5.3,1.6,9.2,6.5,9.2,12.3s-3.9,10.8-9.2,12.3v3.8c7.4-1.7,12.9-8.3,12.9-16.1
	S41.6,16.7,34.2,15z"/>
</svg>
